<!DOCTYPE svg PUBLIC "-//W3C//DTD SVG 1.1//EN" "http://www.w3.org/Graphics/SVG/1.1/DTD/svg11.dtd">
<!-- Uploaded to: SVG Repo, www.svgrepo.com, Transformed by: SVG Repo Mixer Tools -->
<svg version="1.1" id="web" xmlns="http://www.w3.org/2000/svg" xmlns:xlink="http://www.w3.org/1999/xlink" width="800px" height="800px" viewBox="-6.4 -6.4 76.80 76.80" enable-background="new 0 0 64 64" xml:space="preserve" fill="#a215d5" stroke="#a215d5" stroke-width="1.7920000000000003" transform="rotate(90)">
<g id="SVGRepo_bgCarrier" stroke-width="0" transform="translate(0,0), scale(1)">
<path transform="translate(-6.4, -6.4), scale(2.4)" d="M16,30.707144266615312C19.63603207764479,30.47123128538402,22.04952862464463,27.191492157491915,24.452448322460192,24.452448322460192C26.635358388332758,21.96418940819335,28.60545507005652,19.296723457558176,28.902344316244125,16C29.228670421425644,12.376403188798207,28.680102387426054,8.465049963749692,26.125501454118684,5.874498545881316C23.55886268623605,3.271739886944312,19.64551611453489,2.6473835127739727,16,2.9160830850402526C12.627827697587646,3.1646353412362194,9.516346183061106,4.742116145515363,7.264671253470036,7.264671253470032C5.137585783199863,9.6476485862863,4.475736774483876,12.80952138088525,4.3210766712824515,15.999999999999998C4.155946351243051,19.406468407480247,4.253748409864345,22.954573732768395,6.374626714671091,25.625373285328905C8.720155785352318,28.579073164428713,12.236196806445308,30.9513472915607,16,30.707144266615312" fill="#7ed0ec" strokewidth="0"/>
</g>
<g id="SVGRepo_tracerCarrier" stroke-linecap="round" stroke-linejoin="round" stroke="#CCCCCC" stroke-width="0.384"/>
<g id="SVGRepo_iconCarrier"> <path fill="#272223" d="M57.998,42.63l-1.17-0.596c-7.424-7.793-9.133-19.278-4.255-28.705l0.678-0.678 c0.39-0.391,0.39-1.024-0.002-1.414c-0.391-0.39-1.023-0.39-1.414,0.002l-0.593,0.592l-0.007-0.014 c-9.411,4.931-20.808,3.391-28.588-3.78l-0.788-1.547c-0.25-0.492-0.852-0.688-1.345-0.437c-0.492,0.251-0.688,0.853-0.437,1.345 l0.576,1.131l-0.036,0.005c1.508,10.548-3.778,20.802-13.173,25.723L6.3,34.44c-0.545,0.086-0.918,0.599-0.832,1.144 c0.078,0.492,0.503,0.844,0.987,0.844c0.052,0,0.104-0.004,0.157-0.013l1.016-0.161c0.062,0.013,0.122,0.029,0.183,0.042 l0.016,0.032c0.013-0.006,0.024-0.014,0.037-0.02c10.738,2.203,18.849,10.58,20.299,21.005l-0.089,0.563 c-0.087,0.545,0.285,1.058,0.831,1.144c0.053,0.009,0.105,0.013,0.157,0.013c0.483,0,0.909-0.352,0.986-0.844l0.211-1.334 c5.122-9.43,15.616-14.553,26.207-12.748l0.002-0.012l0.621,0.316c0.146,0.074,0.301,0.109,0.453,0.109 c0.364,0,0.716-0.199,0.892-0.546C58.686,43.482,58.49,42.88,57.998,42.63z M52.5,39.828l-3.605-1.837 c-3.267-5.245-4.474-11.465-3.397-17.585l3.478-3.478C46.632,24.653,47.92,33.061,52.5,39.828z M33.58,29.495l-2.303-4.521 c1.833,0.594,3.721,0.985,5.649,1.174L33.58,29.495z M38.442,27.461c0.196,1.992,0.605,3.942,1.233,5.833l-4.682-2.385 L38.442,27.461z M29.436,25.765l2.363,4.638L27.08,31.15C28.063,29.438,28.854,27.641,29.436,25.765z M32.112,32.377l-0.805,5.078 c-1.206-1.584-2.563-3.029-4.083-4.304L32.112,32.377z M34.087,32.69l4.34,2.211c-1.832,0.801-3.558,1.79-5.161,2.97L34.087,32.69z M42.334,34.648c-1.235-2.875-1.911-5.919-2.012-9.067l2.868-2.869c-0.362,4.719,0.511,9.414,2.535,13.665L42.334,34.648z M38.808,24.268c-3.076-0.097-6.054-0.742-8.869-1.921l-1.722-3.379c3.562,1.657,7.428,2.516,11.355,2.516 c0.703,0,1.409-0.041,2.115-0.096L38.808,24.268z M26.334,19.676l1.735,3.406c-0.662,3.033-1.87,5.88-3.597,8.48l-3.964,0.628 C23.513,28.58,25.513,24.282,26.334,19.676z M24.487,33.585c2.522,1.822,4.67,4.062,6.373,6.697l-0.573,3.622 c-2.418-4.052-5.829-7.364-9.914-9.668L24.487,33.585z M32.8,40.814c2.354-2.06,5.038-3.64,7.996-4.705l3.613,1.841 c-4.597,1.111-8.789,3.388-12.204,6.619L32.8,40.814z M39.602,16.69c2.682,0,5.378-0.401,7.996-1.214l-3.612,3.613 c-6.04,1.064-12.169-0.098-17.366-3.258l-1.816-3.565C29.248,15.182,34.398,16.69,39.602,16.69z M22.854,12.848l1.853,3.636 c-0.383,6.139-3.004,11.865-7.385,16.211l-4.975,0.787C18.764,28.539,22.635,20.975,22.854,12.848z M12.368,35.504l4.61-0.73 c5.64,2.424,10.168,6.801,12.791,12.402l-0.794,5.016C26.348,44.521,20.26,38.377,12.368,35.504z M31.015,52.088l0.635-4.008 c3.977-4.717,9.515-7.782,15.667-8.648l4.584,2.336C43.734,41.87,36.061,45.66,31.015,52.088z"/> </g>
</svg>